<svg xmlns="http://www.w3.org/2000/svg" viewBox="0 0 312.45 285.52"><defs><style>.cls-1{fill:#fff;}</style></defs><g id="Camada_2" data-name="Camada 2"><g id="Camada_5" data-name="Camada 5"><path class="cls-1" d="M312.45,88.89C312.45,42.77,275.06,0,229,0c-30.15,0-54.72,18.37-72.72,42.56C135.09,71,20.24,183.44,20.24,82c0-40.38,32.54-77.84,72.68-77.84a72.24,72.24,0,0,1,40.56,12.47A83.32,83.32,0,0,0,83.5,0C37.39,0,.07,42.77,0,88.89c0,33,13.91,48.79,29.18,56.18,17.54,8.47,38.39,6.28,54.24-5,20.63-14.73,48.36-42.22,69.69-67,11-12.85,40.29-36.47,66.62-36.47,40.27,0,72.91,37.35,72.91,77.62,0,3.15-.13,6.28-.39,9.37C290.36,146.27,280.16,167,267,185.62c-48.54,68.92-110.8,99.9-110.8,99.9a383.29,383.29,0,0,0,35.37-21.7l-.22.15,1.29-.88h0C238.84,231.39,312.45,168.4,312.45,88.89Z"/><circle class="cls-1" cx="156.23" cy="150.17" r="23.66"/></g></g></svg>